<svg xmlns="http://www.w3.org/2000/svg" data-name="Layer 1" viewBox="0 0 90 112.5" x="0px" y="0px"><title>Noun Project Uploads</title><circle cx="76.86" cy="42.33" r="0.52" transform="translate(-1.72 3.28) rotate(-2.42)"/><circle cx="74.18" cy="44.7" r="0.52" transform="translate(-1.82 3.17) rotate(-2.42)"/><circle cx="68.8" cy="44.4" r="0.52" transform="translate(-1.81 2.94) rotate(-2.42)"/><circle cx="71.35" cy="47.24" r="0.52" transform="translate(-1.93 3.05) rotate(-2.42)"/><circle cx="62.92" cy="44.65" r="0.52" transform="translate(-1.83 2.69) rotate(-2.42)"/><circle cx="65.64" cy="47.48" r="0.52" transform="translate(-1.94 2.81) rotate(-2.42)"/><circle cx="13.36" cy="42.33" r="0.52" transform="translate(-29.49 53.9) rotate(-87.58)"/><circle cx="16.04" cy="44.7" r="0.52" transform="translate(-29.3 58.83) rotate(-87.58)"/><circle cx="21.42" cy="44.4" r="0.52" transform="translate(-23.85 63.93) rotate(-87.58)"/><circle cx="18.87" cy="47.24" r="0.52" transform="translate(-29.12 64.11) rotate(-87.58)"/><circle cx="27.3" cy="44.65" r="0.52" transform="translate(-18.47 70.04) rotate(-87.58)"/><circle cx="24.58" cy="47.48" r="0.52" transform="translate(-23.9 70.04) rotate(-87.58)"/><text x="0" y="105" fill="#000000" font-size="5px" font-weight="bold" font-family="'Helvetica Neue', Helvetica, Arial-Unicode, Arial, Sans-serif">Created by Madeleine Bennett</text><text x="0" y="110" fill="#000000" font-size="5px" font-weight="bold" font-family="'Helvetica Neue', Helvetica, Arial-Unicode, Arial, Sans-serif"></text></svg>